<svg width="21" height="21" viewBox="0 0 21 21" fill="none" xmlns="http://www.w3.org/2000/svg">
<path d="M5.48096 1.17822V4.57822C5.48096 5.13828 5.48096 5.4183 5.58995 5.63221C5.68582 5.82038 5.8388 5.97336 6.02697 6.06923C6.24088 6.17822 6.5209 6.17822 7.08096 6.17822H13.881C14.441 6.17822 14.721 6.17822 14.9349 6.06923C15.1231 5.97336 15.2761 5.82038 15.372 5.63221C15.481 5.4183 15.481 5.13828 15.481 4.57822V2.17822M15.481 19.1782V12.7782C15.481 12.2182 15.481 11.9381 15.372 11.7242C15.2761 11.5361 15.1231 11.3831 14.9349 11.2872C14.721 11.1782 14.441 11.1782 13.881 11.1782H7.08096C6.5209 11.1782 6.24088 11.1782 6.02697 11.2872C5.8388 11.3831 5.68582 11.5361 5.58995 11.7242C5.48096 11.9381 5.48096 12.2182 5.48096 12.7782V19.1782M19.481 7.50371V14.3782C19.481 16.0584 19.481 16.8985 19.154 17.5402C18.8664 18.1047 18.4074 18.5636 17.8429 18.8512C17.2012 19.1782 16.3611 19.1782 14.681 19.1782H6.28096C4.6008 19.1782 3.76072 19.1782 3.11899 18.8512C2.5545 18.5636 2.09556 18.1047 1.80794 17.5402C1.48096 16.8985 1.48096 16.0584 1.48096 14.3782V5.97822C1.48096 4.29807 1.48096 3.45799 1.80794 2.81625C2.09556 2.25176 2.5545 1.79282 3.11899 1.5052C3.76072 1.17822 4.6008 1.17822 6.28096 1.17822H13.1555C13.6447 1.17822 13.8892 1.17822 14.1194 1.23348C14.3235 1.28248 14.5186 1.36328 14.6975 1.47294C14.8994 1.59663 15.0723 1.76958 15.4182 2.11548L18.5437 5.24097C18.8896 5.58687 19.0626 5.75982 19.1862 5.96165C19.2959 6.1406 19.3767 6.33569 19.4257 6.53976C19.481 6.76993 19.481 7.01452 19.481 7.50371Z" stroke="#010101" stroke-width="2" stroke-linecap="round" stroke-linejoin="round"/>
</svg>
